<svg id="Layer_1" data-name="Layer 1" xmlns="http://www.w3.org/2000/svg" viewBox="0 0 16 16"><defs><style>.cls-1{fill:#80d8ff;}.cls-2{fill:#f87b5a;}.cls-3{fill:none;stroke:#5025d8;stroke-linecap:round;stroke-linejoin:round;stroke-width:0.57px;}</style></defs><g id="Lungs"><path class="cls-1" d="M6.32,13.06c-.33.78-1.41.58-2.62,1-.39.14-1.88,1.11-2.63,1a13,13,0,0,1,.17-5.18C1.79,7.51,3.41,5.17,5,5.17a1.66,1.66,0,0,1,1.19.46,2.93,2.93,0,0,1,.18.88C6.4,7.93,6.59,12.41,6.32,13.06Z"/><path class="cls-2" d="M12.79,9.07a.17.17,0,0,0,0-.12.13.13,0,0,0-.12,0,.17.17,0,0,0-.18.17v.21h.35Z"/><path class="cls-2" d="M11.59,9.79a.81.81,0,0,1,.12-.14.69.69,0,0,1,.13-.11l-.15-.15a.17.17,0,0,0-.13-.05.15.15,0,0,0-.12.05.18.18,0,0,0,0,.25Z"/><path class="cls-2" d="M11.34,10.39h-.21a.17.17,0,0,0-.18.18.17.17,0,0,0,.18.17h.21a1.09,1.09,0,0,1,0-.18A1,1,0,0,1,11.34,10.39Z"/><path class="cls-2" d="M11.6,11.35l-.15.15a.16.16,0,0,0-.06.12.18.18,0,0,0,.06.13.16.16,0,0,0,.24,0l.15-.15-.13-.12Z"/><path class="cls-2" d="M12.45,11.85v.21a.17.17,0,0,0,.05.12.19.19,0,0,0,.13.05.18.18,0,0,0,.17-.17v-.22l-.18,0Z"/><path class="cls-2" d="M13.65,11.34a.76.76,0,0,1-.11.14l-.13.11.15.15a.15.15,0,0,0,.12,0,.17.17,0,0,0,.13,0,.2.2,0,0,0,0-.25Z"/><path class="cls-2" d="M14.12,10.38H13.9a1.09,1.09,0,0,1,0,.18.91.91,0,0,1,0,.17h.22a.15.15,0,0,0,.12-.05.17.17,0,0,0,0-.12A.18.18,0,0,0,14.12,10.38Z"/><path class="cls-2" d="M13.8,9.63a.21.21,0,0,0,0-.13.18.18,0,0,0,0-.12.18.18,0,0,0-.25,0l-.15.15.14.12.11.13Z"/><path class="cls-2" d="M12.62,9.27a1.28,1.28,0,1,0,.92.38A1.33,1.33,0,0,0,12.62,9.27Z"/><path class="cls-3" d="M6.32,13.06c-.33.78-1.41.58-2.62,1-.39.14-1.88,1.11-2.63,1a.48.48,0,0,1-.26-.12C.23,14.4.08,11.35.64,9s2.18-4.7,3.74-4.7a1.81,1.81,0,0,1,1.55.9,2.38,2.38,0,0,1,.23.45,2.93,2.93,0,0,1,.18.88C6.4,7.93,6.59,12.41,6.32,13.06Z"/><path class="cls-3" d="M8,.94V6.12s0,1-.74,1a1,1,0,0,1-.92-.6"/><path class="cls-3" d="M9.68,13.06c.32.78,1.41.58,2.62,1,.39.14,1.87,1.11,2.62,1a.45.45,0,0,0,.26-.12c.59-.53.74-3.58.18-5.95s-2.18-4.7-3.74-4.7a1.83,1.83,0,0,0-1.56.9,2.35,2.35,0,0,0-.22.45,2.66,2.66,0,0,0-.18.88C9.59,7.93,9.41,12.41,9.68,13.06Z"/><path class="cls-3" d="M8,.94V6.12s0,1,.73,1a1,1,0,0,0,.93-.6"/></g></svg>