<svg id="Layer_1" data-name="Layer 1" xmlns="http://www.w3.org/2000/svg" viewBox="0 0 16 16"><defs><style>.cls-1{fill:#f87b5a;}.cls-2{fill:#80d8ff;}.cls-3{fill:none;stroke:#5025d8;stroke-linecap:round;stroke-linejoin:round;stroke-width:0.51px;}.cls-4{fill:#5025d8;}</style></defs><g id="Medical_worker" data-name="Medical worker"><rect class="cls-1" x="5.76" y="11.94" width="0.58" height="1.76"/><rect class="cls-1" x="5.76" y="11.94" width="0.58" height="1.76" transform="translate(18.86 6.77) rotate(90)"/><path class="cls-2" d="M8,8.13h-.4A2.46,2.46,0,0,1,5.05,6V5.81a8.52,8.52,0,0,0,1.82-.44A10.16,10.16,0,0,0,8,4.89a11.13,11.13,0,0,0,1.09.48,8.52,8.52,0,0,0,1.82.44V6A2.46,2.46,0,0,1,8.36,8.12Z"/><path class="cls-3" d="M14.17,15.74V12.81A3.62,3.62,0,0,0,10.86,9.2a3.29,3.29,0,0,0,1.78-2.92V3.55A3.27,3.27,0,0,0,9.37.27H6.63A3.27,3.27,0,0,0,3.36,3.55V6.28A3.29,3.29,0,0,0,5.14,9.2a3.62,3.62,0,0,0-3.31,3.61v2.93"/><path class="cls-3" d="M8,8.13c1.11,0,2.52-.48,2.87-1.32s.36-3.37-.29-4S8,2.16,8,2.16s-1.94,0-2.58.64-.65,3.18-.29,4S6.89,8.13,8,8.13Z"/><line class="cls-3" x1="8" y1="8.13" x2="8" y2="15.74"/><path class="cls-3" d="M6.64,9.54A3.4,3.4,0,0,0,8,9.8a4.29,4.29,0,0,0,1.46-.26"/><path class="cls-3" d="M8,4.16a1.24,1.24,0,0,1,.89.54H11.1a3.24,3.24,0,0,0-.52-1.9C9.94,2.16,8,2.16,8,2.16s-1.94,0-2.58.64A3.24,3.24,0,0,0,4.9,4.7H7.11A1.24,1.24,0,0,1,8,4.16Z"/><line class="cls-3" x1="4.34" y1="13.17" x2="4.34" y2="15.74"/><line class="cls-3" x1="11.66" y1="13.17" x2="11.66" y2="15.74"/><circle class="cls-4" cx="6.41" cy="3.49" r="0.28"/><circle class="cls-4" cx="9.75" cy="3.49" r="0.28"/></g></svg>