<svg id="Layer_1" data-name="Layer 1" xmlns="http://www.w3.org/2000/svg" viewBox="0 0 16 16"><defs><style>.cls-1{fill:none;stroke:#5025d8;stroke-linecap:round;stroke-linejoin:round;stroke-width:0.58px;}.cls-2{fill:#f87b5a;}.cls-3{fill:#80d8ff;}</style></defs><g id="Medical_form" data-name="Medical form"><path class="cls-1" d="M4.45,11.18a.85.85,0,0,1-.27-.61V1.16A.84.84,0,0,1,5,.33h8a.83.83,0,0,1,.83.83v9.41a.83.83,0,0,1-.83.83H6.37"/><path class="cls-1" d="M4.29,11.4s.66-.91,1.2-1.59,1.68-.89,1.38,0a17.18,17.18,0,0,0-.72,2.57c-.06.54-1,1.08-1,1.08"/><path class="cls-1" d="M4.18,15.67a13,13,0,0,1-1.76-3.56A12.34,12.34,0,0,1,2.2,9.54V5a1,1,0,0,1,1-1h0a1,1,0,0,1,1,1V9.47"/><path class="cls-1" d="M9.47,11.4a15.48,15.48,0,0,1-.36,3,3.87,3.87,0,0,1-.6,1.3"/><rect class="cls-2" x="6.68" y="1.86" width="1.05" height="3.19"/><rect class="cls-2" x="6.68" y="1.86" width="1.05" height="3.19" transform="translate(10.67 -3.75) rotate(90)"/><rect class="cls-3" x="10.13" y="2.95" width="2.48" height="0.65" rx="0.33"/><rect class="cls-3" x="10.13" y="4.38" width="2.48" height="0.65" rx="0.33"/><line class="cls-1" x1="5.77" y1="6.96" x2="12.18" y2="6.96"/><line class="cls-1" x1="5.77" y1="8.66" x2="12.18" y2="8.66"/></g></svg>