<svg id="Layer_1" data-name="Layer 1" xmlns="http://www.w3.org/2000/svg" viewBox="0 0 16 16"><defs><style>.cls-1{fill:#f87b5a;}.cls-2,.cls-4{fill:#80d8ff;}.cls-3{fill:none;}.cls-3,.cls-4{stroke:#5025d8;stroke-linecap:round;stroke-linejoin:round;stroke-width:0.41px;}</style></defs><g id="Get_sample" data-name="Get sample"><rect class="cls-1" x="11.87" y="2.48" width="1.02" height="3.11"/><rect class="cls-1" x="11.87" y="2.48" width="1.02" height="3.11" transform="translate(16.42 -8.35) rotate(90)"/><path class="cls-2" d="M2.4,8.28a.84.84,0,0,1-.07-1.17.59.59,0,0,1,.81.06L3.37,5.6a7.36,7.36,0,0,0,3.11-.83c.85-.7.3-2.26.3-2.26s-2.18.61-2.69.36S1.26,2.6.52,3.92A3.56,3.56,0,0,0,.59,7.74,4.64,4.64,0,0,0,3.17,9.47L3,8.66Z"/><path class="cls-3" d="M5.67,5.21a7,7,0,0,1,.88,1.53.77.77,0,0,0,.58.57L7,8.69a1.16,1.16,0,0,1-1,1.08L4.48,10"/><path class="cls-3" d="M5.1,9.93l.46,2.73s-.9.53-2-.72l-.49-3a7.59,7.59,0,0,1-.65-.45,1,1,0,0,1-.09-1.34.55.55,0,0,1,.81.08"/><path class="cls-3" d="M8.35,15.52s-.24-2.5-.86-3.24A4.58,4.58,0,0,0,5.28,11"/><path class="cls-3" d="M3.4,11s-2.08.49-2.5,1.81a7.72,7.72,0,0,0-.3,2.73"/><line class="cls-3" x1="3.12" y1="13.73" x2="3.4" y2="15.52"/><line class="cls-3" x1="8.05" y1="8.02" x2="10.65" y2="9.7"/><path class="cls-1" d="M8.17,8.07a.33.33,0,0,0,0-.29,1.25,1.25,0,0,0-.55-.51c-.22-.08-.39.18-.39.18s-.17.27,0,.44a1.29,1.29,0,0,0,.69.29A.35.35,0,0,0,8.17,8.07Z"/><path class="cls-4" d="M11.87,15.31l-.58-3.92s-.88-.93-1-1.14,0-.51.21-.43a4.4,4.4,0,0,1,.72.44s-1-1.22-.8-1.55.78,0,1.25.4a2.58,2.58,0,0,1,.95,1.1A10.12,10.12,0,0,1,13,11.3l1.3,4.07"/><circle class="cls-3" cx="12.38" cy="4.03" r="3.4"/></g></svg>