<svg id="Layer_1" data-name="Layer 1" xmlns="http://www.w3.org/2000/svg" viewBox="0 0 16 16"><defs><style>.cls-1{fill:#f87b5a;}.cls-2{fill:#80d8ff;}.cls-3{fill:none;stroke:#5025d8;stroke-linecap:round;stroke-linejoin:round;stroke-width:0.61px;}</style></defs><g id="Profile"><polygon class="cls-1" points="8.28 3.97 7.04 2.04 15.67 2.04 15.67 3.97 8.28 3.97"/><rect class="cls-2" x="3.86" y="4.13" width="1.1" height="3.36"/><rect class="cls-2" x="3.86" y="4.13" width="1.1" height="3.36" transform="translate(10.23 1.4) rotate(90)"/><polygon class="cls-3" points="0.33 13.96 0.33 2.04 7.04 2.04 8.28 3.97 15.67 3.97 15.67 13.96 0.33 13.96"/><path class="cls-3" d="M12.44,8.9A1.4,1.4,0,0,0,13,7.8a1.44,1.44,0,0,0-2.87,0,1.4,1.4,0,0,0,.52,1.1"/><path class="cls-3" d="M14,10.68v1.13H9.06V10.68A1.8,1.8,0,0,1,10.61,8.9a1.42,1.42,0,0,0,.92.33,1.39,1.39,0,0,0,.91-.33A1.8,1.8,0,0,1,14,10.68Z"/><line class="cls-3" x1="2.73" y1="9.65" x2="6.5" y2="9.65"/><line class="cls-3" x1="2.73" y1="11.47" x2="6.5" y2="11.47"/></g></svg>