<svg id="Layer_1" data-name="Layer 1" xmlns="http://www.w3.org/2000/svg" viewBox="0 0 16 16"><defs><style>.cls-1{fill:#80d8ff;}.cls-2,.cls-3{fill:none;stroke-linecap:round;stroke-linejoin:round;stroke-width:0.5px;}.cls-2{stroke:#5025d8;}.cls-3{stroke:#f87b5a;}</style></defs><g id="Sore_throat" data-name="Sore throat"><path class="cls-1" d="M4.59,6.93a1,1,0,0,1,.14-1.35.67.67,0,0,1,.91.22L6.2,4.05s2.62.27,3.71-.36.76-2.51.76-2.51-2.59.28-3.12-.11S4.37.23,3.28,1.59A4.12,4.12,0,0,0,2.62,6,5.39,5.39,0,0,0,5.23,8.42v-1Z"/><path class="cls-2" d="M8.9,4.05A8.27,8.27,0,0,1,9.61,6a.9.9,0,0,0,.55.76L9.78,8.27A1.34,1.34,0,0,1,8.5,9.32H6.62"/><path class="cls-2" d="M5.64,5.85a.63.63,0,0,0-.91-.25,1.22,1.22,0,0,0-.14,1.55,7.6,7.6,0,0,0,.65.63l0,3.53c1,1.64,2.13,1.2,2.13,1.2v-.6"/><polyline class="cls-2" points="7.34 10.82 7.34 10.14 7.34 9.32"/><path class="cls-2" d="M7.44,10.16l-.1,0"/><path class="cls-2" d="M8.69,10.69a4.14,4.14,0,0,1,1.21,1c.71.84,1,3.74,1,3.74"/><path class="cls-2" d="M5.22,10.14s-2.45.57-2.94,2.1a8.92,8.92,0,0,0-.35,3.16"/><line class="cls-2" x1="4.84" y1="13.33" x2="5.17" y2="15.4"/><path class="cls-2" d="M7.34,15.4V11.91s-.79-.62-.84-1.09.84,0,.84,0,.11-1.5.63-1.5.93,2.14,1,3,.55,3.23.55,3.23"/><path class="cls-2" d="M8.28,7.6A2.37,2.37,0,0,1,9,7.71"/><path class="cls-3" d="M12.55,6.65a1.09,1.09,0,0,0-.62,1.06c.07.53.46,1.47-.52,1.78"/><path class="cls-3" d="M14.09,5.81a.71.71,0,0,0-.41.71c.05.35.3,1-.35,1.19"/></g></svg>