<svg id="Layer_1" data-name="Layer 1" xmlns="http://www.w3.org/2000/svg" viewBox="0 0 16 16"><defs><style>.cls-1{fill:none;stroke:#5025d8;stroke-linecap:round;stroke-linejoin:round;stroke-width:0.54px;}.cls-2{fill:#f87b5a;}.cls-3{fill:#80d8ff;}</style></defs><g id="Virus"><path class="cls-1" d="M8.79,1.1v1A5.16,5.16,0,0,0,8,2a5.92,5.92,0,0,0-.84.05v-1A.82.82,0,0,1,8,.28a.78.78,0,0,1,.57.24A.79.79,0,0,1,8.79,1.1Z"/><path class="cls-1" d="M3.65,2.57l.7.69a6,6,0,0,0-.6.53,6.53,6.53,0,0,0-.55.63l-.7-.7a.82.82,0,0,1,0-1.16.85.85,0,0,1,.58-.23A.8.8,0,0,1,3.65,2.57Z"/><path class="cls-1" d="M1.06,7.24h1A5.25,5.25,0,0,0,2,8a5.83,5.83,0,0,0,.06.84h-1a.82.82,0,0,1-.82-.81.82.82,0,0,1,.82-.82Z"/><path class="cls-1" d="M2.53,12.38l.7-.7a5.88,5.88,0,0,0,.52.6,5.39,5.39,0,0,0,.63.55l-.69.7a.82.82,0,0,1-1.16,0A.78.78,0,0,1,2.29,13,.82.82,0,0,1,2.53,12.38Z"/><path class="cls-1" d="M7.21,15V14A6.84,6.84,0,0,0,8,14,5.93,5.93,0,0,0,8.84,14v1a.82.82,0,0,1-.82.82.78.78,0,0,1-.57-.24A.81.81,0,0,1,7.21,15Z"/><path class="cls-1" d="M12.35,13.5l-.7-.7a4.86,4.86,0,0,0,.6-.52,6.53,6.53,0,0,0,.55-.63l.7.7a.81.81,0,0,1,0,1.15.82.82,0,0,1-.58.24A.8.8,0,0,1,12.35,13.5Z"/><path class="cls-1" d="M14.94,8.83H14A5.29,5.29,0,0,0,14,8,5.69,5.69,0,0,0,14,7.2h1a.82.82,0,1,1,0,1.63Z"/><path class="cls-1" d="M13.47,3.69l-.7.69a4.88,4.88,0,0,0-.52-.59,6.64,6.64,0,0,0-.63-.56l.69-.69a.83.83,0,0,1,1.16,0,.82.82,0,0,1,0,1.16Z"/><circle class="cls-1" cx="8" cy="8.03" r="6.01"/><circle class="cls-2" cx="7.34" cy="5.36" r="0.67"/><circle class="cls-3" cx="4.78" cy="7.25" r="0.48"/><circle class="cls-2" cx="10.06" cy="9.89" r="0.6"/><circle class="cls-3" cx="11.18" cy="6.23" r="0.52"/><circle class="cls-3" cx="6.07" cy="10.86" r="0.52"/></g></svg>